<svg width="340" height="340" viewBox="0 0 340 340" fill="none" xmlns="http://www.w3.org/2000/svg">
<g clip-path="url(#clip0_144_329)">
<path d="M0 0V339.891H339.891V0H0ZM332.055 332.055H7.8361V7.8361H332.055V332.055Z" fill="#111111"/>
<path d="M209.403 66.3556C209.403 66.0876 209.492 65.9089 209.492 65.6409V57.9582C210.385 56.0822 210.653 54.2062 210.117 52.4196L209.849 51.3476C208.599 46.6129 208.152 44.6475 202.881 41.7889C201.809 40.0915 198.504 35.4462 192.608 34.3742C192.519 34.3742 192.429 34.3742 192.34 34.3742H189.213C188.856 34.1955 188.32 33.9275 187.159 33.5702C186.444 33.3022 185.64 33.0342 185.283 32.8555C184.479 32.1408 183.496 31.7835 182.871 31.6048L177.332 30.1755C175.903 29.8182 174.563 29.9968 173.401 30.8008C173.133 30.9795 172.865 31.2475 172.597 31.5155C170.811 31.1582 167.416 30.8902 165.808 30.9795C164.736 31.0688 162.056 31.7835 160.895 32.1408C159.912 31.4262 158.929 31.0688 157.768 31.0688C155.981 31.0688 154.641 32.0515 154.105 32.4982C147.673 32.5875 144.904 35.9822 143.742 37.5008L143.653 37.6795C143.564 37.8582 143.385 37.9475 143.296 38.1262C141.777 38.2155 138.025 38.7515 135.256 42.4142C132.754 45.7195 132.576 48.7569 132.665 50.1862C131.414 51.5262 128.645 55.1889 130.789 59.2983C131.593 60.9063 132.576 62.5143 134.362 63.4969C134.184 65.1049 134.094 67.249 134.184 69.0356C133.112 70.6436 131.682 73.413 132.397 76.0036C132.665 76.9863 133.29 77.8797 134.184 78.5943V83.1503C134.184 83.1503 134.541 87.617 140.348 88.0637C144.814 88.421 159.555 85.473 164.021 84.4903C163.843 85.205 163.753 85.9197 163.753 86.545L163.575 97.4437C163.575 99.0517 164.825 100.302 166.433 100.392C166.791 100.392 167.327 100.392 168.131 100.392C176.439 100.392 206.812 98.8731 208.241 76.629C209.581 75.289 210.296 73.8596 210.385 72.609C210.564 69.8396 209.76 67.3383 209.403 66.3556ZM188.499 35.7142C188.677 35.8035 188.856 35.8928 189.035 35.8928H192.429C197.968 36.8755 201.184 41.7889 201.72 42.7715C201.809 42.8609 201.899 42.9502 201.988 43.0395C206.812 45.5409 207.169 46.9702 208.331 51.7049L208.599 52.7769C208.956 54.0276 208.867 55.2782 208.331 56.6182C207.348 58.2263 205.919 59.1196 204.4 60.0129C203.507 60.5489 202.613 60.9956 201.809 61.7103C199.755 59.7449 196.092 57.7796 191.179 57.6009C191.179 57.5116 191.179 57.4222 191.268 57.3329C191.268 57.0649 191.357 56.8862 191.357 56.7076C192.608 56.9756 194.395 57.2436 195.645 57.2436C196.003 57.2436 196.271 57.2436 196.539 57.1542C200.469 56.4396 201.184 53.0449 201.005 51.2582L200.648 45.1835C200.559 43.6649 199.933 42.3249 198.772 41.4315C197.253 40.1809 195.199 39.8235 193.323 40.4489C191.447 41.0742 185.372 43.3969 183.049 49.1142L180.459 48.3102C179.565 48.0422 178.761 47.9529 177.868 48.0422C177.868 47.7742 177.868 47.5955 177.868 47.3275C181.888 46.6129 186.444 40.7169 186.891 37.3222C186.98 36.4288 186.891 35.7142 186.712 34.9995C187.427 35.2675 188.231 35.6248 188.499 35.7142ZM174.295 57.3329C174.116 56.2609 174.116 55.1889 174.116 54.2062C174.205 52.4196 175.099 50.9009 176.528 50.0969C177.153 49.7396 177.868 49.5609 178.583 49.5609C179.029 49.5609 179.476 49.6502 180.012 49.8289L186.533 51.8836C186.712 51.9729 190.553 53.0449 189.839 57.0649C189.749 57.4222 189.66 57.6902 189.571 58.0476V58.1369C188.588 60.7276 185.729 63.6756 182.96 65.3729C182.871 65.3729 182.781 65.4623 182.781 65.4623C181.441 66.2663 180.191 66.8023 179.208 66.8023C179.029 66.8023 178.851 66.8023 178.672 66.7129C176.885 66.1769 175.009 61.7996 174.473 57.6009C174.295 57.4222 174.295 57.3329 174.295 57.3329ZM184.479 49.6502C186.623 44.6475 192.072 42.5035 193.769 41.9675C195.199 41.5209 196.717 41.7889 197.789 42.6822C198.593 43.3075 199.04 44.2902 199.129 45.3622L199.487 51.4369C199.487 51.6156 199.755 55.0996 196.271 55.6356C195.377 55.8142 192.876 55.4569 191.357 55.0996C190.911 52.2409 188.499 50.8116 186.98 50.3649L184.479 49.6502ZM190.732 59.1196C196.181 59.2089 199.397 61.4423 200.648 62.6036C197.968 66.0876 192.072 68.4103 189.213 69.3036C189.124 69.0356 188.945 68.6783 188.767 68.321C188.052 67.1596 186.623 66.1769 185.015 65.6409C187.427 63.9436 189.66 61.5316 190.732 59.1196ZM188.856 71.001C191.536 70.2863 198.593 67.6956 201.899 63.4969C202.077 63.4076 202.167 63.3183 202.256 63.2289C202.345 63.1396 202.435 63.0503 202.435 62.9609C202.524 62.9609 202.703 62.8716 202.792 62.7823C203.507 62.1569 204.311 61.7103 205.204 61.1743C206.097 60.6383 207.08 60.1023 207.973 59.2983V65.4623C207.973 65.6409 207.973 65.8196 207.973 65.9089C196.36 80.8277 171.883 82.8823 165.808 82.6143L165.629 74.3956C166.523 74.5743 167.505 74.5743 168.667 74.485H168.756C169.203 74.485 169.649 74.485 170.096 74.485C171.347 74.485 172.955 74.5743 174.741 74.9316C175.456 75.1103 176.26 75.1996 177.064 75.1996C181.888 75.1996 187.069 72.5196 188.856 71.001ZM172.419 36.0715C172.419 35.8035 172.419 35.6248 172.419 35.5355C172.419 34.1062 173.044 32.8555 174.205 32.1408C175.009 31.6048 175.992 31.5155 176.975 31.6942L182.603 33.1235C182.781 33.1235 183.585 33.3915 184.3 33.9275C184.389 34.0168 184.389 34.1062 184.479 34.1062C185.104 34.7315 185.64 35.7142 185.461 37.1435C185.104 39.9129 181.084 45.0942 177.868 45.8089C177.779 44.0222 177.511 42.1462 177.064 41.1635C176.528 39.9129 175.724 39.0195 174.741 38.3942C174.831 38.3049 174.92 38.1262 174.92 37.9475C175.009 37.5008 174.92 37.0542 174.652 36.9648H174.563C174.295 36.9648 174.027 37.2328 173.937 37.6795C173.937 37.7688 173.937 37.8582 173.848 37.9475C173.401 37.7688 172.865 37.6795 172.329 37.5902C172.419 37.1435 172.419 36.5182 172.419 36.0715ZM171.704 39.1982C173.58 39.1982 174.92 40.0915 175.724 41.8782C176.081 42.7715 176.349 44.8262 176.349 46.7022C176.349 47.3275 176.349 47.9529 176.26 48.4889C176.081 48.5782 175.903 48.6676 175.724 48.7569C173.848 49.8289 172.687 51.7942 172.508 54.1169C172.508 54.9209 172.508 55.8142 172.597 56.7076C167.595 56.1716 163.039 51.5262 161.073 48.3102C160.18 46.7915 160.001 45.0942 160.805 43.5755C161.341 42.5035 162.235 41.7889 163.485 41.3422L170.096 39.3769C170.096 39.3769 170.721 39.1982 171.704 39.1982ZM165.808 32.4982C167.148 32.4088 169.828 32.5875 171.436 32.8555C170.989 33.6595 170.811 34.5528 170.811 35.5355C170.811 35.6248 170.811 35.8035 170.811 36.0715C170.811 36.6968 170.811 37.2328 170.811 37.6795C170.007 37.7688 169.471 37.9475 169.471 37.9475L164.647 39.4662C164.111 37.5902 163.039 34.9995 161.967 33.3915C163.575 32.9448 165.183 32.4982 165.808 32.4982ZM154.909 33.7488C154.909 33.7488 156.16 32.5875 157.768 32.5875C158.572 32.5875 159.465 32.9448 160.18 33.5702C161.163 34.4635 162.503 37.4115 163.217 39.9129H163.039C161.431 40.4489 160.18 41.4315 159.465 42.8609C158.929 44.0222 158.751 45.3622 158.929 46.6129C158.036 46.6129 156.696 46.6129 155.624 46.0769C155.177 45.0049 154.552 44.0222 153.837 43.3075C152.944 42.5035 151.872 42.0569 150.8 42.0569C150.442 42.0569 149.996 42.1462 149.638 42.2355C149.192 41.6102 149.192 40.6275 149.192 40.4489C149.192 39.3769 149.638 38.4835 150.442 37.7688L154.909 33.7488ZM155.177 51.8836C155.177 53.5809 154.82 54.5636 154.373 54.9209C154.194 55.0996 153.837 55.2782 152.765 55.2782C150.621 55.2782 147.226 54.1169 145.261 52.7769C144.278 52.0622 143.742 50.9902 143.742 49.9182C143.742 49.2929 143.921 48.7569 144.368 48.3102C144.368 48.3102 144.368 48.3102 144.457 48.2209C144.546 48.0422 144.725 47.9529 144.904 47.7742L148.745 44.5582C148.745 44.5582 149.728 43.6649 150.978 43.6649C151.693 43.6649 152.318 43.9329 152.944 44.5582C153.569 45.0942 154.016 45.9875 154.462 47.0595C154.909 48.4889 155.177 50.1862 155.177 51.8836ZM144.814 38.4835L144.904 38.3049C145.886 37.0542 147.852 34.6422 152.229 34.0168L149.37 36.6075C148.209 37.6795 147.673 38.9302 147.673 40.3595V40.4489C147.048 40.0915 146.065 39.4662 144.725 38.4835C144.814 38.5729 144.814 38.4835 144.814 38.4835ZM136.506 43.2182C138.918 40.0022 142.134 39.5555 143.385 39.4662C145.44 41.0742 146.958 42.0569 148.03 42.4142C148.12 42.5929 148.209 42.7715 148.298 42.9502C147.852 43.2182 147.673 43.3969 147.584 43.3969L143.832 46.6129C143.742 46.7022 143.564 46.7915 143.474 46.9702C139.544 46.5235 136.06 48.0422 134.184 49.0249C134.273 47.6849 134.72 45.5409 136.506 43.2182ZM132.129 58.4049C130.432 55.1889 132.754 52.1516 133.916 50.9009C134.005 50.8116 134.184 50.8116 134.362 50.7222C135.792 49.9182 139.008 48.2209 142.581 48.3995C142.402 48.8462 142.313 49.2929 142.313 49.8289C142.224 51.4369 143.028 53.0449 144.457 54.0276C146.69 55.5462 150.353 56.7969 152.854 56.7969C154.016 56.7969 154.909 56.5289 155.534 55.9929C156.606 55.0996 156.785 53.2236 156.785 51.8836C156.785 50.6329 156.607 49.2929 156.249 47.9529C157.053 48.1315 157.768 48.2209 158.483 48.2209C158.84 48.2209 159.197 48.2209 159.376 48.2209C159.555 48.5782 159.644 48.8462 159.823 49.2036C161.52 52.0622 164.468 55.0102 167.773 56.7969H166.612C166.433 56.7969 166.344 56.7969 166.165 56.8862C162.056 58.0476 150.621 59.5663 150.532 59.5663C150.264 59.5663 150.085 59.6556 149.906 59.8343C149.281 60.1916 144.993 60.8169 140.794 61.1743C140.526 61.1743 139.722 61.3529 138.74 61.4423C137.489 61.6209 135.434 61.8889 134.72 61.9783C133.648 60.9956 132.933 59.9236 132.129 58.4049ZM135.256 77.3437C134.541 76.8076 134.094 76.1823 133.826 75.3783C133.38 73.7703 134.184 71.8943 134.898 70.6436C136.328 72.6983 139.186 74.1276 140.437 73.949C141.33 73.8596 148.924 72.609 155.713 71.6263C158.84 71.0903 161.788 70.6436 163.575 70.3756C163.485 71.0903 163.485 71.8943 163.664 72.5196C163.753 72.877 163.932 73.2343 164.111 73.5023V73.949C161.788 75.1996 158.572 75.1996 156.964 75.1996C155.445 75.1996 153.837 75.1996 152.229 75.7356C149.996 76.5396 147.226 76.7183 144.904 76.8076C143.742 76.897 142.67 76.897 141.866 77.0757C141.777 77.0757 141.688 77.165 141.598 77.165C141.509 77.3437 139.544 78.505 135.256 77.3437ZM140.437 86.277C136.149 85.9197 135.702 83.061 135.702 82.793V78.9517C139.544 79.845 141.688 78.9517 142.224 78.5943C142.938 78.505 143.921 78.4157 144.993 78.3263C147.316 78.1477 150.264 78.0583 152.676 77.165C154.105 76.7183 155.534 76.7183 156.964 76.7183C158.572 76.7183 161.609 76.7183 164.2 75.6463L164.379 82.6143C159.465 83.6863 144.636 86.6343 140.437 86.277ZM163.843 68.7676C162.145 69.0356 158.929 69.5716 155.445 70.1076C149.013 71.0903 141.062 72.341 140.258 72.4303C139.454 72.5196 136.328 71.001 135.702 68.857C135.524 66.8916 135.702 64.4796 135.881 63.0503C136.685 62.9609 137.668 62.7823 138.829 62.6036C139.812 62.5143 140.616 62.3356 140.794 62.3356C140.884 62.3356 149.102 61.7103 150.621 60.8169C150.621 60.8169 150.621 60.8169 150.71 60.8169C150.8 60.8169 162.324 59.2983 166.612 58.1369H168.935C169.024 58.1369 169.024 58.1369 169.024 58.2262V58.3156L165.987 63.6756C165.808 64.1223 164.468 66.3556 163.843 68.7676ZM165.183 69.7503C165.183 69.661 165.183 69.661 165.183 69.5716C165.719 67.0703 167.237 64.5689 167.237 64.4796L170.275 59.1196C170.543 58.6729 170.543 58.2262 170.364 57.7796C171.168 58.0476 171.972 58.1369 172.776 58.2262C173.491 62.6036 175.367 67.4276 178.047 68.1423C178.315 68.2316 178.672 68.2316 179.029 68.2316C180.191 68.2316 181.709 67.6956 183.228 66.8023C185.193 67.1596 186.801 68.2316 187.427 69.2143C187.605 69.4823 187.695 69.7503 187.695 69.929C186.176 71.1796 181.441 73.681 177.064 73.681C176.349 73.681 175.724 73.5916 175.099 73.5023C173.133 73.0556 171.436 73.0556 170.185 73.0556C169.739 73.0556 169.203 73.0556 168.756 73.0556H168.667C168.309 73.0556 167.952 73.0556 167.595 73.0556C166.255 73.0556 165.629 72.9663 165.451 72.6983C165.272 72.5196 165.272 72.4303 165.183 72.1623C165.004 71.4476 165.004 70.5543 165.183 69.7503ZM166.433 98.6051C165.629 98.6051 165.093 97.9797 165.093 97.1757L165.183 88.2424C166.701 89.0464 170.453 89.761 178.761 87.885C178.851 87.885 188.052 88.2424 194.752 83.329C195.824 83.1503 201.005 81.8997 203.953 77.5223C204.311 77.3437 204.757 77.3436 205.293 77.2543C205.651 77.2543 206.097 77.2543 206.544 77.165C204.221 99.1411 170.364 98.7837 166.433 98.6051ZM208.867 72.2516C208.777 73.2343 208.152 74.3063 207.08 75.4676C206.455 75.825 205.919 75.825 205.293 75.825C204.668 75.825 203.953 75.825 203.239 76.2716L203.06 76.361C202.971 76.4503 202.881 76.4503 202.881 76.5396L202.792 76.7183C200.112 80.649 195.377 81.721 194.484 81.8997H194.395L194.216 81.989C194.127 81.989 194.037 82.0783 193.948 82.0783L193.859 82.1677C187.695 86.7237 178.94 86.4557 178.851 86.4557H178.761C178.672 86.4557 178.583 86.4557 178.583 86.4557H178.493C168.667 88.689 165.987 86.9917 165.54 86.6343C165.361 86.545 165.272 86.3663 165.272 86.277C165.272 85.6517 165.451 84.937 165.629 84.0437H165.719C171.704 84.3117 196.092 82.257 208.331 67.8743C208.599 69.125 208.956 70.733 208.867 72.2516Z" fill="#111111"/>
<path d="M164.548 44.9738C164.389 44.4035 163.991 44.0165 163.658 44.1093C163.325 44.2021 163.185 44.7397 163.344 45.3099C163.503 45.8802 163.902 46.2672 164.234 46.1744C164.567 46.0816 164.708 45.544 164.548 44.9738Z" fill="#111111"/>
<path d="M166.079 49.3144C165.92 48.7441 165.521 48.3571 165.188 48.4499C164.856 48.5428 164.715 49.0803 164.874 49.6506C165.033 50.2208 165.432 50.6079 165.765 50.515C166.097 50.4222 166.238 49.8847 166.079 49.3144Z" fill="#111111"/>
<path d="M168.415 44.8787C168.747 44.7859 168.888 44.2484 168.729 43.6781C168.57 43.1078 168.171 42.7208 167.839 42.8136C167.506 42.9065 167.365 43.444 167.524 44.0143C167.684 44.5845 168.082 44.9716 168.415 44.8787Z" fill="#111111"/>
<path d="M169.782 52.4443C169.623 51.874 169.224 51.487 168.891 51.5798C168.559 51.6727 168.418 52.2102 168.577 52.7805C168.736 53.3507 169.135 53.7378 169.468 53.6449C169.8 53.5521 169.941 53.0145 169.782 52.4443Z" fill="#111111"/>
<path d="M170.256 48.0393C170.097 47.4691 169.698 47.082 169.365 47.1749C169.033 47.2677 168.892 47.8052 169.051 48.3755C169.21 48.9458 169.609 49.3328 169.942 49.24C170.274 49.1471 170.415 48.6096 170.256 48.0393Z" fill="#111111"/>
<path d="M173.25 47.3692C173.409 47.9394 173.808 48.3265 174.14 48.2336C174.473 48.1408 174.614 47.6032 174.454 47.033C174.295 46.4627 173.897 46.0757 173.564 46.1685C173.231 46.2614 173.091 46.7989 173.25 47.3692Z" fill="#111111"/>
<path d="M171.667 43.004C171.826 43.5743 172.225 43.9613 172.558 43.8685C172.89 43.7756 173.031 43.2381 172.872 42.6678C172.713 42.0975 172.314 41.7105 171.981 41.8033C171.649 41.8962 171.508 42.4337 171.667 43.004Z" fill="#111111"/>
<path d="M182.549 63.3495C182.74 62.789 182.629 62.2444 182.302 62.1332C181.975 62.0221 181.556 62.3864 181.365 62.9469C181.174 63.5075 181.285 64.052 181.612 64.1632C181.939 64.2744 182.358 63.9101 182.549 63.3495Z" fill="#111111"/>
<path d="M185.929 55.5315C185.739 56.092 185.849 56.6366 186.176 56.7477C186.503 56.8589 186.923 56.4946 187.113 55.9341C187.304 55.3735 187.193 54.829 186.866 54.7178C186.539 54.6066 186.12 54.9709 185.929 55.5315Z" fill="#111111"/>
<path d="M184.734 59.9428C184.543 60.5034 184.654 61.0479 184.981 61.1591C185.308 61.2703 185.727 60.906 185.918 60.3454C186.108 59.7849 185.998 59.2403 185.671 59.1291C185.344 59.018 184.924 59.3823 184.734 59.9428Z" fill="#111111"/>
<path d="M181.94 54.0495C181.749 54.6101 181.86 55.1546 182.187 55.2658C182.514 55.377 182.933 55.0127 183.124 54.4521C183.314 53.8916 183.204 53.347 182.877 53.2359C182.55 53.1247 182.13 53.489 181.94 54.0495Z" fill="#111111"/>
<path d="M180.747 58.4641C180.556 59.0247 180.667 59.5692 180.994 59.6804C181.321 59.7915 181.74 59.4272 181.931 58.8667C182.122 58.3061 182.011 57.7616 181.684 57.6504C181.357 57.5392 180.937 57.9035 180.747 58.4641Z" fill="#111111"/>
<path d="M178.981 62.2188C179.172 61.6582 179.061 61.1137 178.734 61.0025C178.407 60.8913 177.988 61.2556 177.797 61.8162C177.607 62.3767 177.717 62.9213 178.044 63.0324C178.371 63.1436 178.791 62.7793 178.981 62.2188Z" fill="#111111"/>
<path d="M177.673 52.7373C177.483 53.2979 177.593 53.8424 177.92 53.9536C178.247 54.0648 178.667 53.7005 178.857 53.1399C179.048 52.5794 178.937 52.0348 178.61 51.9236C178.283 51.8125 177.864 52.1768 177.673 52.7373Z" fill="#111111"/>
<path d="M176.565 57.1806C176.375 57.7411 176.485 58.2857 176.812 58.3969C177.139 58.508 177.559 58.1437 177.749 57.5832C177.94 57.0226 177.829 56.4781 177.502 56.3669C177.175 56.2557 176.756 56.62 176.565 57.1806Z" fill="#111111"/>
<path d="M196.551 52.578C196.541 52.2821 196.133 52.0559 195.64 52.0727C195.147 52.0894 194.755 52.3429 194.765 52.6387C194.775 52.9345 195.183 53.1608 195.676 53.144C196.169 53.1272 196.561 52.8738 196.551 52.578Z" fill="#111111"/>
<path d="M195.677 48.3782C195.184 48.395 194.793 48.6484 194.803 48.9442C194.813 49.2401 195.221 49.4663 195.714 49.4495C196.207 49.4328 196.598 49.1794 196.588 48.8835C196.578 48.5877 196.17 48.3614 195.677 48.3782Z" fill="#111111"/>
<path d="M194.568 45.0097C194.578 45.3056 194.986 45.5318 195.479 45.515C195.973 45.4983 196.364 45.2448 196.354 44.949C196.344 44.6531 195.936 44.4269 195.443 44.4437C194.95 44.4604 194.558 44.7139 194.568 45.0097Z" fill="#111111"/>
<path d="M187.099 48.005C187.109 48.3009 187.516 48.5271 188.01 48.5104C188.503 48.4936 188.894 48.2402 188.884 47.9443C188.874 47.6485 188.466 47.4222 187.973 47.439C187.48 47.4558 187.088 47.7092 187.099 48.005Z" fill="#111111"/>
<path d="M190.525 45.4424C190.536 45.7382 190.943 45.9645 191.436 45.9477C191.93 45.9309 192.321 45.6775 192.311 45.3816C192.301 45.0858 191.893 44.8595 191.4 44.8763C190.907 44.8931 190.515 45.1465 190.525 45.4424Z" fill="#111111"/>
<path d="M191.648 48.7871C191.155 48.8039 190.763 49.0573 190.773 49.3532C190.783 49.649 191.191 49.8752 191.684 49.8585C192.177 49.8417 192.569 49.5883 192.559 49.2924C192.549 48.9966 192.141 48.7704 191.648 48.7871Z" fill="#111111"/>
<path d="M190.6 52.6617C190.61 52.9576 191.018 53.1838 191.511 53.167C192.005 53.1503 192.396 52.8968 192.386 52.601C192.376 52.3051 191.968 52.0789 191.475 52.0957C190.982 52.1124 190.59 52.3659 190.6 52.6617Z" fill="#111111"/>
<path d="M179.208 41.6995C179.119 41.6995 179.119 41.6995 179.208 41.6995C178.851 41.6995 178.583 41.9675 178.493 42.4142C178.404 42.8609 178.493 43.3075 178.761 43.3969H178.851C179.119 43.3969 179.387 43.1289 179.476 42.6822C179.565 42.2355 179.476 41.7889 179.208 41.6995Z" fill="#111111"/>
<path d="M182.156 37.0542C182.156 37.0542 182.245 37.0542 182.156 37.0542C182.513 37.0542 182.781 36.7862 182.871 36.3395C182.96 35.8928 182.871 35.4462 182.603 35.3568H182.513C182.245 35.3568 181.977 35.6248 181.888 36.0715C181.799 36.5182 181.888 36.9648 182.156 37.0542Z" fill="#111111"/>
<path d="M181.352 40.8062C181.441 40.8062 181.441 40.8062 181.352 40.8062C181.709 40.8062 181.977 40.5382 182.067 40.0915C182.156 39.6449 182.067 39.1982 181.799 39.1089H181.709C181.441 39.1089 181.173 39.3769 181.084 39.8235C180.995 40.2702 181.084 40.7169 181.352 40.8062Z" fill="#111111"/>
<path d="M178.761 35.9822C178.761 35.9822 178.851 35.9822 178.761 35.9822C179.119 35.9822 179.387 35.7142 179.476 35.2675C179.565 34.8208 179.476 34.3742 179.208 34.2848H179.119C178.851 34.2848 178.583 34.5528 178.493 34.9995C178.315 35.4462 178.493 35.8928 178.761 35.9822Z" fill="#111111"/>
<path d="M177.957 39.7342C178.047 39.7342 178.047 39.7342 177.957 39.7342C178.315 39.7342 178.583 39.4662 178.672 39.0195C178.761 38.5728 178.672 38.1262 178.404 38.0368H178.315C178.047 38.0368 177.779 38.3048 177.689 38.7515C177.6 39.1982 177.689 39.6448 177.957 39.7342Z" fill="#111111"/>
<path d="M175.188 35.0888C175.545 35.0888 175.813 34.8208 175.903 34.3742C175.992 33.9275 175.903 33.4808 175.635 33.3915H175.545C175.277 33.3915 175.009 33.6595 174.92 34.1062C174.741 34.5528 174.92 34.9995 175.188 35.0888Z" fill="#111111"/>
<path d="M150.196 46.2674C150.477 46.6114 150.86 46.7638 151.051 46.6078C151.242 46.4518 151.169 46.0465 150.889 45.7025C150.608 45.3585 150.225 45.2061 150.034 45.3621C149.843 45.5181 149.916 45.9234 150.196 46.2674Z" fill="#111111"/>
<path d="M145.967 49.7181C145.686 49.3741 145.303 49.2217 145.112 49.3777C144.921 49.5337 144.994 49.939 145.275 50.283C145.555 50.627 145.938 50.7794 146.129 50.6234C146.32 50.4674 146.248 50.0621 145.967 49.7181Z" fill="#111111"/>
<path d="M148.289 52.0641C148.008 51.7201 147.626 51.5677 147.435 51.7237C147.244 51.8797 147.316 52.285 147.597 52.629C147.878 52.973 148.26 53.1254 148.452 52.9694C148.643 52.8135 148.57 52.4081 148.289 52.0641Z" fill="#111111"/>
<path d="M148.439 47.6112C148.158 47.2672 147.775 47.1148 147.584 47.2707C147.393 47.4267 147.466 47.832 147.747 48.176C148.027 48.52 148.41 48.6724 148.601 48.5165C148.792 48.3605 148.719 47.9552 148.439 47.6112Z" fill="#111111"/>
<path d="M150.854 50.9027C151.045 50.7468 150.973 50.3415 150.692 49.9975C150.411 49.6535 150.029 49.501 149.838 49.657C149.646 49.813 149.719 50.2183 150 50.5623C150.281 50.9063 150.663 51.0587 150.854 50.9027Z" fill="#111111"/>
<path d="M151.679 53.1206C151.399 52.7766 151.016 52.6241 150.825 52.7801C150.634 52.9361 150.707 53.3414 150.987 53.6855C151.268 54.0295 151.651 54.182 151.842 54.026C152.033 53.87 151.96 53.4647 151.679 53.1206Z" fill="#111111"/>
<path d="M153.652 51.3808C153.371 51.0368 152.988 50.8844 152.797 51.0404C152.606 51.1963 152.679 51.6017 152.959 51.9457C153.24 52.2896 153.623 52.4421 153.814 52.2861C154.005 52.1301 153.932 51.7248 153.652 51.3808Z" fill="#111111"/>
<path d="M152.515 48.7112C152.796 49.0552 153.178 49.2076 153.369 49.0516C153.561 48.8957 153.488 48.4904 153.207 48.1464C152.926 47.8024 152.544 47.6499 152.353 47.8059C152.162 47.9619 152.234 48.3672 152.515 48.7112Z" fill="#111111"/>
<path d="M161.252 39.3769C161.341 39.3769 161.431 39.3769 161.52 39.2875C161.788 39.1089 161.699 38.6622 161.341 38.2155C161.073 37.9475 160.805 37.7689 160.537 37.7689C160.448 37.7689 160.359 37.7689 160.269 37.8582C160.001 38.0369 160.091 38.4835 160.448 38.9302C160.805 39.1982 161.073 39.3769 161.252 39.3769Z" fill="#111111"/>
<path d="M158.393 36.5182C158.482 36.5182 158.572 36.5182 158.661 36.4288C158.929 36.2502 158.84 35.8035 158.483 35.3568C158.215 35.0888 157.946 34.9102 157.678 34.9102C157.589 34.9102 157.5 34.9102 157.41 34.9995C157.142 35.1782 157.232 35.6248 157.589 36.0715C157.857 36.4288 158.214 36.5182 158.393 36.5182Z" fill="#111111"/>
<path d="M158.393 41.6995C158.482 41.6995 158.572 41.6995 158.661 41.6102C158.929 41.4315 158.84 40.9849 158.483 40.5382C158.215 40.2702 157.946 40.0915 157.678 40.0915C157.589 40.0915 157.5 40.0915 157.41 40.1809C157.142 40.3595 157.232 40.8062 157.589 41.2529C157.857 41.6102 158.125 41.6995 158.393 41.6995Z" fill="#111111"/>
<path d="M155.534 38.9302C155.624 38.9302 155.713 38.9302 155.802 38.8408C156.07 38.6622 155.981 38.2155 155.624 37.7688C155.356 37.5008 155.088 37.3222 154.82 37.3222C154.73 37.3222 154.641 37.3222 154.552 37.4115C154.284 37.5902 154.373 38.0368 154.73 38.4835C154.998 38.7515 155.266 38.9302 155.534 38.9302Z" fill="#111111"/>
<path d="M152.676 41.5208C152.765 41.5208 152.854 41.5208 152.944 41.4315C153.212 41.2528 153.122 40.8062 152.765 40.3595C152.497 40.0915 152.229 39.9128 151.961 39.9128C151.872 39.9128 151.782 39.9128 151.693 40.0022C151.425 40.1808 151.514 40.6275 151.872 41.0742C152.14 41.4315 152.497 41.5208 152.676 41.5208Z" fill="#111111"/>
<path d="M155.534 44.2009C155.624 44.2009 155.713 44.2009 155.802 44.1115C156.07 43.9329 155.981 43.4862 155.624 43.0395C155.356 42.7715 155.088 42.5929 154.82 42.5929C154.73 42.5929 154.641 42.5929 154.552 42.6822C154.284 42.8609 154.373 43.3075 154.73 43.7542C154.998 44.0222 155.266 44.2009 155.534 44.2009Z" fill="#111111"/>
<path d="M48 137.432C48 123.723 58.7907 113 72.364 113C78.0647 113 83.6298 114.968 88.3125 118.633L85.9372 122.298C81.9331 119.108 77.3182 117.411 72.364 117.411C61.3696 117.411 52.6828 126.302 52.6828 137.432C52.6828 148.562 61.4375 157.452 72.364 157.452C77.5897 157.452 82.3403 155.62 85.9372 152.295L88.3804 155.959C84.1048 159.692 78.3362 161.864 72.364 161.864C58.7907 161.864 48 151.073 48 137.432V137.432ZM103.101 142.386V113.679H107.851V142.047C107.851 152.227 113.62 157.181 121.764 157.181C129.976 157.181 135.744 152.227 135.744 142.047V113.679H140.495V142.386C140.495 154.806 133.573 161.864 121.764 161.864C109.955 161.864 103.101 154.806 103.101 142.386V142.386ZM175.303 113.679C186.434 113.679 191.591 122.162 191.591 130.917C191.591 139.604 186.434 148.087 175.303 148.087H162.748V161.185H157.998V113.679H175.303ZM175.032 143.608C182.769 143.608 186.773 137.635 186.773 130.917C186.773 124.13 182.769 118.158 175.032 118.158H162.748V143.608H175.032ZM224.907 113.679C236.037 113.679 241.195 122.162 241.195 130.917C241.195 139.604 236.037 148.087 224.907 148.087H212.352V161.185H207.601V113.679H224.907ZM224.635 143.608C232.372 143.608 236.376 137.635 236.376 130.917C236.376 124.13 232.372 118.158 224.635 118.158H212.352V143.608H224.635ZM291.409 113.679L274.51 139.875V161.185H269.76V140.011L252.793 113.679H258.222L272.135 135.192L285.98 113.679H291.409V113.679Z" fill="#111111"/>
<path d="M48 200.091C48 185.368 59.5888 173.852 74.166 173.852C80.2884 173.852 86.265 175.966 91.2941 179.902L88.7431 183.838C84.4428 180.412 79.4866 178.59 74.166 178.59C62.3585 178.59 53.0291 188.138 53.0291 200.091C53.0291 212.044 62.4314 221.592 74.166 221.592C79.7782 221.592 84.8802 219.624 88.7431 216.053L91.367 219.989C86.7752 223.998 80.5799 226.33 74.166 226.33C59.5888 226.33 48 214.741 48 200.091V200.091ZM142.744 225.601L137.788 214.085H113.08L108.123 225.601H102.657L125.106 173.852H125.762L148.211 225.601H142.744ZM115.12 209.348H135.747L125.397 185.368L115.12 209.348ZM192.591 225.601L176.191 201.039L167.518 211.68V225.601H162.416V174.581H167.518V203.881L191.57 174.581H197.765L179.617 196.884L198.567 225.601H192.591V225.601ZM244.697 220.791L245.061 225.601H214.157V174.581H243.603L243.968 179.392H219.259V193.677H236.533V198.488H219.259V220.791H244.697V220.791ZM258.683 220.208C262.109 223.415 268.523 226.33 274.937 226.33C284.776 226.33 291.409 221.009 291.409 213.065C291.409 206.651 288.566 203.007 276.613 196.374C267.648 191.418 265.389 189.596 265.389 185.878C265.389 181.87 269.325 178.663 275.155 178.663C278.654 178.663 282.954 180.193 285.505 181.797L288.129 177.715C284.704 175.529 279.674 173.852 275.228 173.852C266.191 173.852 259.995 179.027 259.995 185.951C259.995 192.074 263.129 195.135 272.969 200.383C282.517 205.412 285.943 208.765 285.943 213.065C285.943 217.948 281.351 221.301 275.01 221.301C269.835 221.301 264.514 218.75 261.599 216.126L258.683 220.208Z" fill="#111111"/>
<path d="M107.134 278.613C106.916 278.541 107.061 277.96 107.17 277.597C108.331 274.404 109.493 271.175 110.617 267.945C110.835 267.292 111.307 266.53 110.291 265.877C109.42 265.478 110.327 265.042 110.472 265.187C111.488 266.457 112.323 263.663 113.194 261.704C113.811 260.289 114.5 258.765 115.081 257.241C115.697 255.753 116.242 254.229 116.822 252.705C117.185 251.798 117.512 250.891 117.875 250.02C117.947 249.766 117.983 249.294 118.346 249.439C118.6 249.512 118.564 249.947 118.419 250.238C116.931 254.048 115.661 257.93 113.956 261.631C113.411 262.793 112.976 263.954 112.432 265.079C111.96 266.022 112.25 266.457 113.157 266.857C117.621 268.743 122.918 265.949 126.438 261.523C130.502 256.479 133.078 249.185 130.321 244.831C125.531 237.247 109.093 248.605 107.279 258.583C107.279 258.801 107.461 259.164 107.17 259.164C106.807 259.2 106.699 258.837 106.735 258.547C108.005 250.419 118.528 240.767 126.148 241.493C135.981 242.69 133.405 257.132 123.898 265.079C121.068 267.619 116.133 269.179 113.012 267.401C111.742 266.82 111.488 267.219 111.125 268.308C110.037 271.465 108.876 274.622 107.715 277.779C107.606 278.105 107.787 278.758 107.134 278.613V278.613ZM148.681 258.184C149.044 258.475 148.645 258.729 148.464 258.874C146.504 260.797 144.799 262.539 142.476 263.99C142.041 264.244 141.642 264.498 141.206 264.679C140.372 265.006 139.537 265.042 138.812 264.462C138.05 263.845 138.086 262.974 138.267 262.139C138.412 261.523 138.63 260.906 138.812 260.325C137.215 261.087 136.272 262.72 134.784 263.663C134.276 263.99 133.804 264.353 133.26 264.607C132.607 264.897 131.99 265.042 131.409 264.534C130.865 264.026 130.829 263.337 130.974 262.684C131.518 260.107 134.602 257.567 137.288 257.495C137.796 257.495 138.34 257.676 138.812 257.967C139.029 258.112 139.211 258.475 139.537 258.293C139.936 258.075 140.263 257.386 140.698 258.112C141.025 258.583 140.553 258.983 140.372 259.418C139.936 260.325 139.356 261.196 139.138 262.212C138.993 262.865 138.775 263.482 139.428 263.99C140.082 264.462 140.662 264.244 141.279 263.917C142.585 263.301 143.746 262.43 144.799 261.414C145.887 260.361 146.867 259.599 147.956 258.547C148.137 258.329 148.391 257.967 148.681 258.184V258.184ZM138.05 259.817C138.34 259.527 138.666 259.2 138.485 258.729C138.231 258.112 137.65 258.402 137.288 258.329C135.074 258.329 132.716 260.144 131.881 262.43C131.699 263.01 131.373 263.591 131.99 264.063C132.534 264.534 133.042 264.099 133.441 263.845C135.219 262.793 136.598 261.269 138.05 259.817ZM147.52 265.841C146.976 265.187 147.484 264.462 148.464 263.99C149.407 263.518 149.588 262.793 149.298 262.139C148.355 259.999 148.064 259.418 148.282 258.547C148.5 257.785 149.117 257.277 149.842 257.241C150.532 257.205 151.004 257.531 151.294 258.112C151.548 258.62 151.475 259.454 150.822 259.89C150.677 259.962 150.423 260.107 150.278 259.962C150.06 259.817 150.169 259.672 150.35 259.491C151.294 258.765 150.278 257.495 149.48 258.112C148.609 258.765 148.972 259.817 150.169 262.393C150.278 262.611 150.532 262.938 150.967 262.72C151.802 262.357 152.854 261.885 153.87 261.414C155.721 260.543 157.39 259.491 159.095 258.366C159.313 258.221 159.603 257.821 159.857 258.221C160.075 258.547 159.712 258.692 159.458 258.874C157.063 260.579 154.56 261.994 151.802 263.047C150.931 263.373 150.278 263.954 150.06 264.788C149.806 265.695 148.21 266.675 147.52 265.841V265.841ZM148.681 265.441C149.516 265.115 149.842 263.917 149.117 264.28C147.556 265.042 147.992 265.732 148.681 265.441ZM161.272 265.115C159.132 265.26 158.442 264.607 158.333 262.502C158.261 260.615 159.023 258.946 159.712 257.313C160.474 255.535 161.272 253.794 162.071 252.052C162.252 251.617 162.76 250.855 162.506 250.709C162.434 250.564 161.2 250.746 160.764 250.746C159.712 250.855 157.716 250.963 157.063 250.963C156.846 250.963 156.519 250.963 156.555 250.6C156.592 250.274 156.918 250.31 157.1 250.31C157.934 250.274 159.93 250.201 161.345 250.092C163.377 249.947 163.123 249.802 164.03 247.77C164.502 246.609 165.155 245.52 165.736 244.396C165.881 244.142 166.062 243.779 166.389 243.96C166.752 244.142 166.461 244.468 166.353 244.722C165.736 245.956 165.119 247.19 164.538 248.46C163.885 249.911 163.776 249.911 164.574 249.875C165.518 249.875 166.062 249.802 166.425 249.802C166.969 249.802 167.623 249.657 168.276 249.657C169.11 249.621 169.364 249.439 169.401 249.947C169.401 250.274 168.929 250.201 168.131 250.274C167.296 250.346 165.917 250.492 164.538 250.564C163.631 250.564 163.522 250.709 163.268 251.326C161.926 254.483 160.22 257.459 159.277 260.761C158.95 261.958 158.587 263.264 159.676 264.135C160.837 265.042 162.071 264.425 163.123 263.663C165.01 262.321 166.752 260.325 168.276 258.62C168.493 258.366 168.747 257.858 169.074 258.075C169.509 258.438 168.965 258.692 168.675 259.2C166.933 261.16 165.336 262.938 163.232 264.353C162.651 264.752 162.034 265.079 161.272 265.115V265.115ZM169.437 264.861C167.042 264.861 166.062 263.482 166.752 261.196C167.223 259.781 168.022 258.62 169.219 257.749C170.09 257.132 171.07 257.059 171.904 257.713C172.557 258.221 172.34 259.599 171.505 260.434C170.598 261.341 169.509 261.885 168.167 261.813C167.296 261.74 166.969 262.357 167.405 263.155C167.877 264.026 169.183 264.498 170.453 264.135C172.557 263.518 174.372 262.321 175.932 260.797C176.875 259.89 177.637 259.309 178.581 258.366C178.726 258.221 178.944 257.967 179.161 258.257C179.27 258.402 179.198 258.583 179.089 258.729C176.621 261.269 174.372 263.518 170.852 264.679C170.38 264.825 169.909 264.825 169.437 264.861V264.861ZM168.348 261.123C169.292 261.559 171.578 259.999 171.614 258.729C171.578 258.184 171.142 257.894 170.417 258.003C169.691 258.075 168.058 259.708 167.949 260.434C167.877 260.797 168.058 261.015 168.348 261.123ZM182.246 264.643C179.307 265.986 177.529 264.389 177.855 261.74C177.964 260.869 178.145 259.89 178.508 259.019C181.121 252.778 184.495 247.044 189.321 242.255C190.301 241.275 191.39 240.404 192.696 239.86C194.873 238.989 196.071 239.86 195.708 242.11C195.309 244.722 193.785 246.79 192.115 248.677C188.85 252.306 185.003 255.173 180.577 257.205C180.141 257.422 179.887 257.676 179.706 258.075C179.234 259.164 178.835 260.289 178.653 261.486C178.327 263.99 179.706 265.042 181.992 264.063C184.241 263.083 186.056 261.45 187.906 259.962L190.12 258.148C190.229 258.075 190.519 257.967 190.591 258.039C190.882 258.257 190.664 258.475 190.483 258.62C187.725 260.724 185.475 263.155 182.246 264.643V264.643ZM181.012 256.37C184.459 254.81 187.362 252.487 190.12 249.984C192.224 248.024 193.966 245.666 194.909 242.872C195.2 242.11 195.417 241.13 194.728 240.477C193.93 239.751 193.168 240.549 192.442 240.803C192.043 240.948 191.68 241.239 191.353 241.493C186.673 245.52 183.225 250.528 180.685 256.116C180.504 256.406 180.722 256.515 181.012 256.37V256.37ZM190.882 264.861C188.487 264.861 187.507 263.482 188.197 261.196C188.668 259.781 189.467 258.62 190.664 257.749C191.535 257.132 192.515 257.059 193.349 257.713C194.002 258.221 193.785 259.599 192.95 260.434C192.043 261.341 190.954 261.885 189.612 261.813C188.741 261.74 188.414 262.357 188.85 263.155C189.321 264.026 190.628 264.498 191.898 264.135C194.002 263.518 195.817 262.321 197.377 260.797C198.32 259.89 199.082 259.309 200.026 258.366C200.171 258.221 200.389 257.967 200.606 258.257C200.715 258.402 200.643 258.583 200.534 258.729C198.066 261.269 195.817 263.518 192.297 264.679C191.825 264.825 191.353 264.825 190.882 264.861V264.861ZM189.793 261.123C190.737 261.559 193.023 259.999 193.059 258.729C193.023 258.184 192.587 257.894 191.861 258.003C191.136 258.075 189.503 259.708 189.394 260.434C189.321 260.797 189.503 261.015 189.793 261.123ZM202.892 265.187C201.441 265.187 200.969 264.679 200.933 263.301C200.897 262.031 201.477 260.978 202.167 259.999C202.747 259.164 202.747 258.692 201.622 258.583C201.332 258.547 201.042 258.366 200.752 258.293C200.534 258.221 200.28 258.148 200.062 258.039C199.373 257.749 199.082 257.168 199.228 256.443C199.518 254.919 200.316 253.757 201.695 253.104C202.312 252.778 203.038 252.741 203.582 253.249C204.017 253.685 204.271 254.229 203.981 254.882C203.691 255.608 203.437 256.37 202.82 256.878C202.094 257.459 201.768 257.858 202.892 258.329C203.582 258.62 203.546 259.237 203.146 259.853C202.638 260.615 202.167 261.377 201.804 262.212C201.514 262.865 201.368 263.7 201.913 264.244C202.457 264.825 203.255 264.607 203.945 264.317C205.396 263.736 206.557 262.865 207.755 261.813C208.843 260.869 210.258 259.527 211.492 258.402C211.71 258.257 211.891 257.858 212.218 258.184C212.436 258.402 212.182 258.62 212.036 258.765C209.714 260.869 207.682 263.155 204.852 264.643C204.199 264.97 203.546 265.26 202.892 265.187V265.187ZM200.715 257.531C201.804 257.64 203.727 255.027 203.328 254.084C203.074 253.503 202.638 253.467 202.13 253.649C201.296 253.903 199.953 255.681 199.881 256.551C199.844 257.205 200.352 257.313 200.715 257.531ZM213.415 254.701C213.306 254.556 213.306 254.374 213.452 254.229C214.504 253.141 215.484 252.052 216.79 251.254C216.899 251.181 217.116 251.181 217.262 251.181C217.334 251.181 217.37 251.363 217.407 251.471C217.298 251.617 217.225 251.798 217.08 251.871C215.992 252.705 214.939 253.612 213.996 254.592C213.851 254.773 213.633 254.955 213.415 254.701V254.701ZM212.182 264.752C210.839 265.151 209.75 264.244 209.859 262.793C210.258 261.269 210.984 259.745 211.71 258.221C211.855 257.93 212.109 257.676 212.399 257.894C212.762 258.148 212.436 258.438 212.327 258.692C211.855 259.781 211.311 260.869 210.912 261.994C210.694 262.647 210.404 263.409 211.129 264.026C211.601 264.389 212.399 264.026 212.98 263.809C215.266 262.865 217.08 260.216 219.729 258.257C219.91 258.148 220.056 257.858 220.273 258.148C220.455 258.366 220.237 258.547 220.056 258.656C216.536 261.196 215.883 263.7 212.182 264.752V264.752ZM234.098 258.184C234.461 258.475 234.062 258.729 233.881 258.874C231.921 260.797 230.216 262.539 227.893 263.99C227.458 264.244 227.059 264.498 226.623 264.679C225.789 265.006 224.954 265.042 224.228 264.462C223.466 263.845 223.503 262.974 223.684 262.139C223.829 261.523 224.047 260.906 224.228 260.325C222.632 261.087 221.688 262.72 220.201 263.663C219.693 263.99 219.221 264.353 218.677 264.607C218.024 264.897 217.407 265.042 216.826 264.534C216.282 264.026 216.246 263.337 216.391 262.684C216.935 260.107 220.019 257.567 222.704 257.495C223.212 257.495 223.757 257.676 224.228 257.967C224.446 258.112 224.628 258.475 224.954 258.293C225.353 258.075 225.68 257.386 226.115 258.112C226.442 258.583 225.97 258.983 225.789 259.418C225.353 260.325 224.773 261.196 224.555 262.212C224.41 262.865 224.192 263.482 224.845 263.99C225.498 264.462 226.079 264.244 226.696 263.917C228.002 263.301 229.163 262.43 230.216 261.414C231.304 260.361 232.284 259.599 233.373 258.547C233.554 258.329 233.808 257.967 234.098 258.184V258.184ZM223.466 259.817C223.757 259.527 224.083 259.2 223.902 258.729C223.648 258.112 223.067 258.402 222.704 258.329C220.491 258.329 218.132 260.144 217.298 262.43C217.116 263.01 216.79 263.591 217.407 264.063C217.951 264.534 218.459 264.099 218.858 263.845C220.636 262.793 222.015 261.269 223.466 259.817V259.817Z" fill="#111111"/>
</g>
<defs>
<clipPath id="clip0_144_329">
<rect width="339.891" height="339.891" fill="white"/>
</clipPath>
</defs>
</svg>
